{
  "accessors": [
    {
      "bufferView": 2,
      "componentType": 5126,
      "count": 9185,
      "max": [
        13.859821319580078,
        5.483801364898682,
        10.845454216003418
      ],
      "min": [
        -13.859821319580078,
        -5.483800411224365,
        1.2788995504379272
      ],
      "type": "VEC3"
    },
    {
      "bufferView": 2,
      "byteOffset": 110220,
      "componentType": 5126,
      "count": 9185,
      "max": [
        1.0,
        1.0,
        1.0
      ],
      "min": [
        -1.0,
        -1.0,
        -1.0
      ],
      "type": "VEC3"
    },
    {
      "bufferView": 3,
      "componentType": 5126,
      "count": 9185,
      "max": [
        1.0,
        1.0,
        0.9999926090240479,
        1.0
      ],
      "min": [
        -1.0,
        -1.0,
        -0.9999684691429138,
        1.0
      ],
      "type": "VEC4"
    },
    {
      "bufferView": 1,
      "componentType": 5126,
      "count": 9185,
      "max": [
        0.999500036239624,
        0.9916478395462036
      ],
      "min": [
        0.0005000000237487257,
        0.0005000000237487257
      ],
      "type": "VEC2"
    },
    {
      "bufferView": 0,
      "componentType": 5125,
      "count": 37644,
      "type": "SCALAR"
    }
  ],
  "asset": {
    "extras": {
      "author": "Salim Rached (https://sketchfab.com/Salim.Rached)",
      "license": "CC-BY-SA-4.0 (http://creativecommons.org/licenses/by-sa/4.0/)",
      "source": "https://sketchfab.com/3d-models/hex-dumbbell-10kg-750c69ba487a485da85800010687ca51",
      "title": "Hex Dumbbell 10kg"
    },
    "generator": "Sketchfab-12.67.0",
    "version": "2.0"
  },
  "bufferViews": [
    {
      "buffer": 0,
      "byteLength": 150576,
      "name": "floatBufferViews",
      "target": 34963
    },
    {
      "buffer": 0,
      "byteLength": 73480,
      "byteOffset": 150576,
      "byteStride": 8,
      "name": "floatBufferViews",
      "target": 34962
    },
    {
      "buffer": 0,
      "byteLength": 220440,
      "byteOffset": 224056,
      "byteStride": 12,
      "name": "floatBufferViews",
      "target": 34962
    },
    {
      "buffer": 0,
      "byteLength": 146960,
      "byteOffset": 444496,
      "byteStride": 16,
      "name": "floatBufferViews",
      "target": 34962
    }
  ],
  "buffers": [
    {
      "byteLength": 591456,
      "uri": "scene.bin"
    }
  ],
  "images": [
    {
      "uri": "textures/Hex_dumbbell_10Kg_baseColor.png"
    },
    {
      "uri": "textures/Hex_dumbbell_10Kg_metallicRoughness.png"
    },
    {
      "uri": "textures/Hex_dumbbell_10Kg_normal.png"
    }
  ],
  "materials": [
    {
      "doubleSided": true,
      "name": "Hex_dumbbell_10Kg",
      "normalTexture": {
        "index": 2
      },
      "occlusionTexture": {
        "index": 1
      },
      "pbrMetallicRoughness": {
        "baseColorTexture": {
          "index": 0
        },
        "metallicRoughnessTexture": {
          "index": 1
        }
      }
    }
  ],
  "meshes": [
    {
      "name": "Hex dumbbell 10Kg_Hex dumbbell 10Kg_0",
      "primitives": [
        {
          "attributes": {
            "NORMAL": 1,
            "POSITION": 0,
            "TANGENT": 2,
            "TEXCOORD_0": 3
          },
          "indices": 4,
          "material": 0,
          "mode": 4
        }
      ]
    }
  ],
  "nodes": [
    {
      "children": [
        1
      ],
      "matrix": [
        1.0,
        0.0,
        0.0,
        0.0,
        0.0,
        2.220446049250313e-16,
        -1.0,
        0.0,
        0.0,
        1.0,
        2.220446049250313e-16,
        0.0,
        0.0,
        0.0,
        0.0,
        1.0
      ],
      "name": "Sketchfab_model"
    },
    {
      "children": [
        2
      ],
      "matrix": [
        0.009999999776482582,
        0.0,
        0.0,
        0.0,
        0.0,
        0.0,
        0.009999999776482582,
        0.0,
        0.0,
        -0.009999999776482582,
        0.0,
        0.0,
        0.0,
        0.0,
        0.0,
        1.0
      ],
      "name": "Hex Dumbbell 10kg.fbx"
    },
    {
      "children": [
        3
      ],
      "name": "RootNode"
    },
    {
      "children": [
        4
      ],
      "matrix": [
        1.0,
        0.0,
        0.0,
        0.0,
        0.0,
        2.220446049250313e-16,
        -1.0,
        0.0,
        0.0,
        1.0,
        2.220446049250313e-16,
        0.0,
        0.0,
        0.0,
        -5.5902443563127235e-08,
        1.0
      ],
      "name": "Hex dumbbell 10Kg"
    },
    {
      "children": [
        5
      ],
      "matrix": [
        1.0,
        0.0,
        -0.0,
        0.0,
        0.0,
        1.0,
        0.0,
        0.0,
        0.0,
        0.0,
        1.0,
        0.0,
        0.0,
        0.0,
        -1.27889883518219,
        1.0
      ],
      "name": "Object_4"
    },
    {
      "mesh": 0,
      "name": "Hex dumbbell 10Kg_Hex dumbbell 10Kg_0"
    }
  ],
  "samplers": [
    {
      "magFilter": 9729,
      "minFilter": 9987,
      "wrapS": 10497,
      "wrapT": 10497
    }
  ],
  "scene": 0,
  "scenes": [
    {
      "name": "Sketchfab_Scene",
      "nodes": [
        0
      ]
    }
  ],
  "textures": [
    {
      "sampler": 0,
      "source": 0
    },
    {
      "sampler": 0,
      "source": 1
    },
    {
      "sampler": 0,
      "source": 2
    }
  ]
}
